<svg xmlns="http://www.w3.org/2000/svg" xmlns:xlink="http://www.w3.org/1999/xlink" width="100" zoomAndPan="magnify" viewBox="0 0 75 74.999997" height="100" preserveAspectRatio="xMidYMid meet" version="1.0"><defs><g/></defs><g fill="#000000" fill-opacity="1"><g transform="translate(1.841088, 58.674696)"><g><path d="M 1.566406 -2.9375 C 2.675781 -0.195312 4.960938 2.023438 7.636719 3.003906 C 8.355469 3.261719 9.332031 3.65625 9.789062 3.914062 C 12.921875 5.480469 17.949219 2.21875 21.277344 -3.460938 C 22.90625 -6.265625 24.34375 -9.660156 24.667969 -11.617188 C 24.867188 -12.597656 25.0625 -13.574219 25.191406 -13.902344 C 25.257812 -14.292969 25.191406 -14.488281 24.867188 -14.621094 C 24.472656 -14.75 24.148438 -14.359375 23.105469 -12.855469 C 22.449219 -11.8125 21.601562 -10.441406 21.210938 -9.789062 C 20.167969 -7.898438 17.554688 -4.371094 15.925781 -2.804688 C 14.359375 -1.175781 12.140625 0.261719 10.769531 0.457031 C 9.59375 0.71875 9.203125 0.195312 8.417969 -2.347656 C 7.898438 -4.046875 7.832031 -4.894531 7.703125 -8.8125 C 7.636719 -13.964844 7.832031 -16.25 8.941406 -20.6875 C 11.488281 -30.675781 16.445312 -40.070312 21.601562 -44.511719 C 24.082031 -46.664062 27.542969 -47.902344 28.324219 -46.988281 C 28.519531 -46.730469 28.652344 -45.554688 28.652344 -42.878906 C 28.585938 -39.679688 28.519531 -38.507812 27.867188 -34.980469 C 27.410156 -32.699219 27.148438 -30.476562 27.148438 -30.085938 C 27.214844 -29.628906 27.542969 -29.109375 28 -28.714844 L 28.714844 -28 L 29.5 -28.910156 C 30.023438 -29.5 30.542969 -30.675781 31.066406 -32.042969 C 32.371094 -35.960938 32.699219 -38.050781 32.761719 -41.378906 C 32.761719 -44.3125 32.761719 -44.511719 32.042969 -46.207031 C 31.523438 -47.382812 30.933594 -48.296875 30.28125 -48.882812 C 29.761719 -49.339844 28.976562 -50.121094 28.585938 -50.578125 C 26.234375 -53.253906 23.039062 -53.453125 18.863281 -51.035156 C 12.398438 -47.445312 6.589844 -39.160156 2.742188 -28.0625 C 0.78125 -22.582031 0.195312 -18.664062 0.128906 -12.398438 C 0.128906 -7.960938 0.523438 -5.613281 1.566406 -2.9375 Z M 29.890625 -36.742188 C 29.957031 -37.070312 29.957031 -37.136719 30.085938 -36.875 C 30.152344 -36.742188 30.085938 -36.484375 30.023438 -36.417969 C 29.957031 -36.285156 29.890625 -36.484375 29.890625 -36.742188 Z M 29.824219 -35.828125 C 29.890625 -35.699219 29.890625 -35.375 29.824219 -35.175781 C 29.761719 -34.980469 29.695312 -35.175781 29.695312 -35.503906 C 29.695312 -35.894531 29.761719 -36.027344 29.824219 -35.828125 Z M 29.171875 -33.546875 C 29.304688 -33.871094 29.433594 -33.9375 29.433594 -33.675781 C 29.433594 -33.414062 29.304688 -33.023438 29.171875 -32.761719 C 29.109375 -32.371094 28.976562 -32.371094 28.976562 -32.632812 C 28.976562 -32.828125 29.109375 -33.21875 29.171875 -33.546875 Z M 6.65625 -12.988281 C 6.589844 -12.726562 6.589844 -13.054688 6.589844 -13.640625 C 6.589844 -14.226562 6.65625 -14.421875 6.65625 -14.097656 C 6.722656 -13.769531 6.722656 -13.25 6.65625 -12.988281 Z M 6.917969 -15.53125 C 6.851562 -15.335938 6.789062 -15.53125 6.789062 -15.988281 C 6.789062 -16.445312 6.851562 -16.578125 6.917969 -16.316406 C 6.984375 -16.054688 6.984375 -15.730469 6.917969 -15.53125 Z M 7.246094 -17.492188 C 7.046875 -16.902344 7.046875 -16.902344 7.046875 -17.359375 C 7.046875 -17.621094 7.113281 -18.144531 7.246094 -18.535156 C 7.375 -19.058594 7.375 -19.058594 7.375 -18.664062 C 7.375 -18.339844 7.308594 -17.816406 7.246094 -17.492188 Z M 14.292969 -40.59375 C 11.03125 -35.960938 8.289062 -29.761719 6.332031 -22.777344 C 5.808594 -20.949219 5.351562 -19.1875 5.285156 -18.925781 C 5.222656 -18.601562 5.222656 -18.925781 5.285156 -19.578125 C 5.480469 -21.144531 6.332031 -24.410156 7.503906 -27.671875 C 9.398438 -33.023438 12.203125 -38.375 15.207031 -42.292969 C 16.183594 -43.597656 15.597656 -42.488281 14.292969 -40.59375 Z M 12.464844 -40.070312 C 12.855469 -40.398438 12.855469 -40.398438 12.597656 -40.007812 C 12.269531 -39.550781 12.074219 -39.417969 12.074219 -39.617188 C 12.074219 -39.679688 12.269531 -39.875 12.464844 -40.070312 Z M 11.355469 -38.441406 C 11.683594 -38.898438 11.941406 -39.222656 12.007812 -39.222656 C 12.074219 -39.222656 11.878906 -38.898438 11.617188 -38.441406 C 11.355469 -37.984375 11.09375 -37.65625 11.03125 -37.65625 C 10.964844 -37.65625 11.09375 -37.984375 11.355469 -38.441406 Z M 9.984375 -35.4375 C 7.246094 -30.085938 5.222656 -24.214844 4.308594 -18.664062 C 4.113281 -17.492188 3.851562 -14.488281 3.785156 -12.007812 C 3.589844 -7.832031 3.589844 -7.636719 3.394531 -9.332031 C 3.066406 -12.335938 3.65625 -18.535156 4.570312 -22.191406 C 5.546875 -25.976562 8.09375 -32.566406 9.921875 -35.828125 C 10.769531 -37.394531 10.769531 -37.070312 9.984375 -35.4375 Z M 2.414062 -12.203125 C 2.480469 -12.855469 2.609375 -14.226562 2.675781 -15.335938 C 2.742188 -16.445312 2.9375 -18.078125 3.066406 -18.925781 C 3.328125 -20.625 4.632812 -25.519531 4.765625 -25.386719 C 4.828125 -25.324219 4.632812 -24.34375 4.308594 -23.167969 C 3.523438 -20.230469 3.066406 -17.296875 2.871094 -14.097656 C 2.804688 -12.597656 2.675781 -11.289062 2.546875 -11.160156 C 2.414062 -11.09375 2.414062 -11.550781 2.414062 -12.203125 Z M 2.414062 -12.203125 "/></g></g></g><g fill="#000000" fill-opacity="1"><g transform="translate(30.688917, 58.674696)"><g><path d="M 37.851562 -51.230469 C 36.027344 -48.753906 31.132812 -39.222656 28.78125 -33.609375 C 27.800781 -31.390625 25.519531 -25.324219 25.519531 -24.996094 C 25.519531 -24.996094 23.300781 -24.929688 20.625 -24.800781 C 17.949219 -24.734375 14.75 -24.539062 13.507812 -24.34375 C 12.335938 -24.148438 11.355469 -24.082031 11.355469 -24.148438 C 11.355469 -24.605469 14.03125 -31.980469 15.46875 -35.503906 C 16.382812 -37.65625 17.816406 -41.117188 18.664062 -43.203125 C 20.296875 -47.316406 20.558594 -48.882812 19.710938 -49.40625 C 19.382812 -49.535156 18.925781 -49.992188 18.601562 -50.382812 C 17.6875 -51.363281 16.902344 -51.230469 15.53125 -49.796875 C 12.792969 -46.859375 7.179688 -33.871094 4.765625 -24.734375 L 4.113281 -22.320312 L 2.480469 -21.667969 C -0.585938 -20.558594 -3.460938 -18.273438 -2.609375 -17.6875 C -2.414062 -17.621094 -2.285156 -17.492188 -2.347656 -17.425781 C -2.480469 -17.035156 -1.894531 -16.511719 -1.304688 -16.382812 C -0.71875 -16.25 -0.585938 -16.121094 -0.71875 -15.730469 C -0.78125 -15.402344 -0.71875 -15.140625 -0.261719 -14.878906 C 0.261719 -14.488281 0.457031 -14.488281 1.4375 -14.816406 C 2.023438 -15.011719 2.546875 -15.140625 2.609375 -15.140625 C 2.609375 -15.074219 2.546875 -13.445312 2.347656 -11.488281 C 1.957031 -6.136719 2.152344 -3.914062 3.328125 -1.5 C 4.113281 0.195312 4.371094 0.585938 5.222656 0.980469 C 6.332031 1.566406 7.113281 1.4375 6.589844 0.847656 C 6.394531 0.523438 6.394531 -0.261719 6.589844 -3.003906 C 6.984375 -7.375 7.441406 -10.050781 8.484375 -14.292969 C 9.007812 -16.183594 9.332031 -17.75 9.332031 -17.816406 C 9.332031 -18.078125 15.53125 -19.90625 17.949219 -20.425781 C 20.558594 -20.949219 24.082031 -21.40625 24.277344 -21.277344 C 24.34375 -21.210938 23.953125 -19.90625 23.429688 -18.273438 C 21.082031 -10.898438 20.230469 -6.589844 20.230469 -1.042969 L 20.167969 2.804688 L 21.210938 4.765625 C 21.796875 6.070312 22.449219 6.917969 22.90625 7.179688 C 24.015625 7.898438 24.148438 7.765625 24.148438 6.460938 C 24.214844 2.089844 26.300781 -7.898438 28.519531 -14.226562 C 30.414062 -19.710938 31.132812 -21.277344 31.785156 -21.40625 C 32.699219 -21.472656 37.527344 -20.753906 37.851562 -20.425781 C 38.375 -19.972656 38.570312 -20.363281 38.246094 -21.144531 C 37.851562 -21.992188 37.070312 -22.386719 34.199219 -23.039062 C 33.089844 -23.300781 32.242188 -23.625 32.242188 -23.757812 C 32.242188 -23.953125 33.351562 -26.5625 38.113281 -37.460938 C 41.183594 -44.574219 42.421875 -48.035156 42.421875 -49.210938 C 42.421875 -49.796875 41.441406 -51.492188 41.441406 -50.90625 C 41.441406 -50.578125 40.464844 -51.820312 40.464844 -52.210938 C 40.464844 -53.253906 38.898438 -52.667969 37.851562 -51.230469 Z M 4.308594 -4.175781 C 4.242188 -3.65625 4.242188 -4.113281 4.242188 -5.285156 C 4.242188 -6.460938 4.242188 -6.917969 4.308594 -6.332031 C 4.371094 -5.742188 4.371094 -4.765625 4.308594 -4.175781 Z M 5.089844 -6.851562 C 5.023438 -6.589844 4.960938 -6.789062 4.960938 -7.246094 C 4.960938 -7.765625 5.023438 -7.960938 5.089844 -7.703125 C 5.089844 -7.441406 5.089844 -7.046875 5.089844 -6.851562 Z M 4.570312 -8.222656 C 4.503906 -7.503906 4.4375 -7.570312 4.4375 -8.484375 C 4.371094 -9.921875 5.351562 -16.578125 5.546875 -16.382812 C 5.613281 -16.316406 5.417969 -14.683594 5.15625 -12.726562 C 4.894531 -10.703125 4.632812 -8.746094 4.570312 -8.222656 Z M 5.285156 -8.8125 C 5.222656 -8.550781 5.222656 -8.746094 5.222656 -9.265625 C 5.222656 -9.722656 5.222656 -9.921875 5.285156 -9.660156 C 5.351562 -9.464844 5.351562 -9.070312 5.285156 -8.8125 Z M 5.546875 -10.832031 C 5.480469 -10.574219 5.417969 -10.769531 5.417969 -11.226562 C 5.417969 -11.683594 5.480469 -11.941406 5.546875 -11.683594 C 5.613281 -11.421875 5.613281 -11.03125 5.546875 -10.832031 Z M 6.589844 -16.578125 C 6.589844 -15.925781 5.679688 -12.203125 5.679688 -12.597656 C 5.613281 -13.183594 6.265625 -16.445312 6.460938 -16.640625 C 6.589844 -16.707031 6.589844 -16.707031 6.589844 -16.578125 Z M 8.027344 -25.910156 C 10.050781 -32.371094 12.792969 -39.222656 15.597656 -44.835938 C 16.445312 -46.535156 17.359375 -48.230469 17.621094 -48.554688 C 17.882812 -48.882812 17.621094 -48.230469 16.96875 -47.054688 C 14.226562 -41.835938 11.421875 -35.046875 9.070312 -28.0625 C 7.375 -23.039062 6.65625 -21.539062 8.027344 -25.910156 Z M 8.875 -24.734375 C 8.746094 -24.148438 8.484375 -23.691406 8.355469 -23.691406 C 8.15625 -23.691406 10.378906 -30.414062 12.140625 -34.851562 C 14.226562 -40.203125 18.46875 -49.210938 18.730469 -48.949219 C 18.796875 -48.882812 18.144531 -47.511719 17.359375 -45.878906 C 14.488281 -40.203125 10.050781 -29.109375 8.875 -24.734375 Z M 38.960938 -49.40625 C 39.09375 -49.535156 39.160156 -49.40625 39.027344 -49.210938 C 38.898438 -48.753906 38.703125 -48.6875 38.703125 -49.011719 C 38.703125 -49.144531 38.832031 -49.339844 38.960938 -49.40625 Z M 38.246094 -48.035156 C 38.375 -48.296875 38.570312 -48.554688 38.636719 -48.554688 C 38.703125 -48.554688 38.636719 -48.296875 38.441406 -48.035156 C 38.308594 -47.773438 38.113281 -47.578125 38.050781 -47.578125 C 37.984375 -47.578125 38.050781 -47.773438 38.246094 -48.035156 Z M 35.894531 -43.269531 C 35.960938 -43.203125 35.175781 -41.507812 34.199219 -39.417969 C 33.21875 -37.394531 31.785156 -34.199219 30.933594 -32.242188 C 29.566406 -28.976562 29.238281 -28.390625 29.238281 -28.714844 C 29.238281 -29.367188 35.699219 -43.464844 35.894531 -43.269531 Z M 28.652344 -27.148438 C 28.78125 -27.476562 28.910156 -27.933594 29.042969 -28.128906 C 29.238281 -28.390625 29.238281 -28.324219 29.109375 -27.933594 C 29.042969 -27.542969 28.847656 -27.085938 28.714844 -26.890625 C 28.585938 -26.628906 28.519531 -26.757812 28.652344 -27.148438 Z M 27.933594 -25.191406 C 28 -25.519531 28.195312 -25.976562 28.324219 -26.171875 C 28.457031 -26.433594 28.519531 -26.367188 28.390625 -25.910156 C 28.257812 -25.582031 28.128906 -25.125 28 -24.929688 C 27.800781 -24.667969 27.800781 -24.734375 27.933594 -25.191406 Z M 25.910156 -19.316406 C 26.105469 -19.710938 26.234375 -19.972656 26.234375 -19.839844 C 26.234375 -19.710938 26.105469 -19.1875 25.910156 -18.730469 C 25.714844 -18.207031 25.582031 -18.011719 25.582031 -18.207031 C 25.582031 -18.40625 25.714844 -18.925781 25.910156 -19.316406 Z M 22.253906 2.152344 C 22.191406 2.675781 22.125 2.152344 22.125 1.042969 C 22.125 0 22.191406 -0.457031 22.253906 0.128906 C 22.253906 0.71875 22.253906 1.632812 22.253906 2.152344 Z M 22.320312 -6.394531 C 22.320312 -6.722656 22.386719 -6.789062 22.449219 -6.527344 C 22.515625 -6.394531 22.515625 -6.136719 22.449219 -6.070312 C 22.386719 -6.003906 22.320312 -6.136719 22.320312 -6.394531 Z M 22.320312 -1.632812 C 22.253906 -2.9375 23.234375 -8.289062 24.148438 -11.617188 C 25.324219 -15.925781 27.476562 -22.253906 27.542969 -21.339844 C 27.542969 -21.210938 26.890625 -19.316406 26.171875 -17.097656 C 25.386719 -14.878906 24.472656 -11.746094 24.015625 -10.117188 C 23.625 -8.484375 23.105469 -5.742188 22.84375 -4.046875 C 22.582031 -2.285156 22.320312 -1.238281 22.320312 -1.632812 Z M 22.972656 0.261719 C 22.90625 0.585938 22.84375 0.328125 22.84375 -0.261719 C 22.84375 -0.914062 22.90625 -1.175781 22.972656 -0.847656 C 23.039062 -0.523438 23.039062 -0.0664062 22.972656 0.261719 Z M 23.300781 -2.675781 C 23.105469 -1.828125 23.105469 -1.761719 23.105469 -2.414062 C 23.105469 -3.261719 23.496094 -4.894531 23.496094 -4.175781 C 23.496094 -3.851562 23.429688 -3.199219 23.300781 -2.675781 Z M 25.453125 -12.203125 C 25.0625 -11.03125 24.539062 -8.941406 24.214844 -7.503906 C 23.886719 -6.070312 23.558594 -5.089844 23.558594 -5.417969 C 23.558594 -6.332031 25.714844 -14.621094 25.976562 -14.359375 C 26.039062 -14.292969 25.78125 -13.3125 25.453125 -12.203125 Z M 28 -19.972656 C 27.933594 -19.710938 27.476562 -18.535156 27.019531 -17.230469 C 26.234375 -14.878906 26.039062 -14.421875 26.039062 -14.878906 C 26.039062 -15.207031 27.738281 -20.035156 27.933594 -20.167969 C 28 -20.230469 28.0625 -20.167969 28 -19.972656 Z M 28.257812 -20.6875 C 28.128906 -20.492188 28 -20.425781 28 -20.558594 C 28 -20.6875 28.128906 -21.015625 28.257812 -21.210938 C 28.390625 -21.40625 28.519531 -21.472656 28.519531 -21.339844 C 28.519531 -21.144531 28.390625 -20.882812 28.257812 -20.6875 Z M 30.675781 -27.019531 C 30.023438 -25.519531 29.5 -24.410156 29.5 -24.539062 C 29.5 -24.867188 31 -28.78125 31.457031 -29.5 C 31.585938 -29.824219 31.71875 -29.957031 31.71875 -29.890625 C 31.71875 -29.824219 31.261719 -28.519531 30.675781 -27.019531 Z M 31.980469 -30.414062 C 31.847656 -30.21875 31.785156 -30.152344 31.785156 -30.28125 C 31.785156 -30.414062 31.847656 -30.675781 31.980469 -30.871094 C 32.109375 -31.066406 32.242188 -31.132812 32.242188 -31 C 32.242188 -30.871094 32.109375 -30.609375 31.980469 -30.414062 Z M 32.761719 -32.109375 C 32.632812 -31.914062 32.5 -31.847656 32.5 -31.980469 C 32.5 -32.175781 32.632812 -32.4375 32.761719 -32.632812 C 32.894531 -32.828125 32.957031 -32.894531 32.957031 -32.761719 C 32.957031 -32.632812 32.894531 -32.304688 32.761719 -32.109375 Z M 34.003906 -34.851562 C 33.742188 -34.394531 33.480469 -34.132812 33.480469 -34.265625 C 33.480469 -34.394531 33.742188 -34.917969 34.003906 -35.375 C 34.265625 -35.828125 34.460938 -36.15625 34.460938 -35.960938 C 34.460938 -35.828125 34.265625 -35.375 34.003906 -34.851562 Z M 38.507812 -46.535156 C 33.871094 -36.875 31.71875 -32.109375 29.890625 -27.542969 C 29.238281 -25.910156 28.652344 -24.472656 28.585938 -24.472656 C 28.0625 -23.886719 29.761719 -28.324219 32.042969 -33.609375 C 33.675781 -37.332031 40.269531 -50.839844 40.398438 -50.710938 C 40.398438 -50.644531 39.550781 -48.753906 38.507812 -46.535156 Z M 38.507812 -46.535156 "/></g></g></g></svg>